<svg width="20" height="20" viewBox="0 0 20 20" fill="none" xmlns="http://www.w3.org/2000/svg">
<path fill-rule="evenodd" clip-rule="evenodd" d="M6.76249 12.0558L9.63585 5.73441C9.77795 5.42178 10.222 5.42177 10.3641 5.73442L13.2375 12.0558C13.6012 12.1518 13.9697 12.28 14.2867 12.4569C14.2712 12.4055 14.2519 12.3543 14.2288 12.3034L11.0924 5.40337C10.6661 4.46546 9.33388 4.46546 8.90755 5.40337L5.77116 12.3034C5.74806 12.3543 5.72882 12.4055 5.71326 12.4569C6.03024 12.28 6.39874 12.1518 6.76249 12.0558Z" fill="white"/>
<path fill-rule="evenodd" clip-rule="evenodd" d="M13.0225 15.4832C12.2185 15.6842 11.1503 15.8 10 15.8C8.84972 15.8 7.78148 15.6842 6.97754 15.4832C6.58172 15.3843 6.20466 15.2537 5.90727 15.0779C5.66344 14.9338 5.2 14.5955 5.2 14C5.2 13.4045 5.66344 13.0662 5.90727 12.9221C6.20466 12.7463 6.58172 12.6157 6.97754 12.5168C7.78148 12.3158 8.84972 12.2 10 12.2C11.1503 12.2 12.2185 12.3158 13.0225 12.5168C13.4183 12.6157 13.7953 12.7463 14.0927 12.9221C14.3366 13.0662 14.8 13.4045 14.8 14C14.8 14.5955 14.3366 14.9338 14.0927 15.0779C13.7953 15.2537 13.4183 15.3843 13.0225 15.4832ZM10 15C12.2091 15 14 14.5523 14 14C14 13.4477 12.2091 13 10 13C7.79086 13 6 13.4477 6 14C6 14.5523 7.79086 15 10 15Z" fill="white"/>
<path d="M5.77117 12.3034L8.90756 5.40337C9.33389 4.46545 10.6661 4.46545 11.0924 5.40337L14.2288 12.3034C14.59 13.098 14.0091 14 13.1364 14H6.86361C5.99086 14 5.41002 13.098 5.77117 12.3034Z" fill="url(#paint0_linear_102_2)"/>
<defs>
<linearGradient id="paint0_linear_102_2" x1="10" y1="3" x2="10" y2="14" gradientUnits="userSpaceOnUse">
<stop offset="0.229167" stop-color="white"/>
<stop offset="0.901042" stop-color="white" stop-opacity="0"/>
</linearGradient>
</defs>
</svg>
