<?xml version="1.0" standalone="no"?>
<!DOCTYPE svg PUBLIC "-//W3C//DTD SVG 20010904//EN"
 "http://www.w3.org/TR/2001/REC-SVG-20010904/DTD/svg10.dtd">
<svg version="1.0" xmlns="http://www.w3.org/2000/svg"
 width="512.000000pt" height="512.000000pt" viewBox="0 0 512.000000 512.000000"
 preserveAspectRatio="xMidYMid meet">
<metadata>
Created by potrace 1.14, written by Peter Selinger 2001-2017
</metadata>
<g transform="translate(0.000000,512.000000) scale(0.100000,-0.100000)"
fill="#000000" stroke="none">
<path d="M0 2560 l0 -2560 2560 0 2560 0 0 2560 0 2560 -2560 0 -2560 0 0
-2560z m2695 1325 c30 -15 71 -45 92 -70 29 -33 134 -255 452 -954 227 -502
411 -914 408 -917 -3 -3 -20 2 -39 12 -18 10 -75 32 -127 49 l-94 32 -165 359
c-91 197 -166 360 -167 362 -2 2 -744 4 -936 2 -45 0 -58 -4 -62 -17 -3 -10
-56 -126 -117 -258 -148 -319 -159 -342 -185 -400 -22 -49 -25 -51 -96 -74
-41 -13 -98 -34 -128 -47 -30 -14 -56 -22 -59 -20 -7 7 808 1796 840 1843 82
122 244 163 383 98z m245 -1905 c255 -25 481 -77 618 -142 44 -21 90 -54 134
-97 56 -56 69 -75 83 -125 97 -338 -360 -538 -1225 -538 -553 1 -965 92 -1123
248 -152 150 -117 356 83 484 135 87 436 155 791 180 146 10 490 5 639 -10z"/>
<path d="M2230 1778 c-311 -26 -579 -99 -660 -179 -219 -219 731 -397 1509
-283 306 45 501 130 501 220 0 145 -462 257 -1043 253 -111 -1 -249 -6 -307
-11z"/>
</g>
</svg>
